<svg width="1440" height="400" viewBox="0 0 1440 400" fill="#d9d9d9" xmlns="http://www.w3.org/2000/svg">
<path d="M1473.6 287.398L1437.56 276.909C1401.52 266.42 1329.45 245.442 1257.71 252.935C1185.81 260.194 1114.42 296.156 1042.53 331.184C970.805 366.213 898.745 400.309 827.008 398.466C755.103 396.624 683.689 358.378 611.776 333.666C540.031 308.722 467.955 297.078 396.218 294.77C324.313 292.461 252.914 299.486 181.017 318.647C109.287 337.573 37.2258 368.868 1.19523 384.283L-34.8353 399.93L-34.9728 0.884556L1.0631 0.872138C37.099 0.85972 109.171 0.834884 180.907 0.810164C252.811 0.785385 324.213 0.760781 396.117 0.736002C467.853 0.711282 539.925 0.686446 611.661 0.661725C683.565 0.636947 754.967 0.612342 826.871 0.587564C898.607 0.562843 970.679 0.538007 1042.42 0.513287C1114.32 0.488508 1185.72 0.463903 1257.62 0.439125C1329.36 0.414405 1401.43 0.389569 1437.47 0.377151L1473.5 0.364733L1473.6 287.398Z" fill="#d9d9d9"/>
</svg>
